<?xml version="1.0" encoding="UTF-8" standalone="no"?>
<!-- Created with Inkscape (http://www.inkscape.org/) -->

<svg
   xmlns:dc="http://purl.org/dc/elements/1.1/"
   xmlns:cc="http://creativecommons.org/ns#"
   xmlns:rdf="http://www.w3.org/1999/02/22-rdf-syntax-ns#"
   xmlns:svg="http://www.w3.org/2000/svg"
   xmlns="http://www.w3.org/2000/svg"
   xmlns:sodipodi="http://sodipodi.sourceforge.net/DTD/sodipodi-0.dtd"
   xmlns:inkscape="http://www.inkscape.org/namespaces/inkscape"
   width="18.33"
   height="16.297012"
   viewBox="0 0 18.33 16.297012"
   version="1.1"
   id="svg1262"
   sodipodi:docname="Ant1.svg"
   inkscape:version="0.92.3 (2405546, 2018-03-11)">
  <defs
     id="defs1256" />
  <sodipodi:namedview
     id="base"
     pagecolor="#ffffff"
     bordercolor="#666666"
     borderopacity="1.0"
     inkscape:pageopacity="0.0"
     inkscape:pageshadow="2"
     inkscape:zoom="11.2"
     inkscape:cx="20.338488"
     inkscape:cy="14.409834"
     inkscape:document-units="mm"
     inkscape:current-layer="layer1"
     showgrid="false"
     units="mm"
     fit-margin-top="0"
     fit-margin-left="0"
     fit-margin-right="0"
     fit-margin-bottom="0"
     inkscape:window-width="2560"
     inkscape:window-height="1360"
     inkscape:window-x="-11"
     inkscape:window-y="-11"
     inkscape:window-maximized="1" />
  <metadata
     id="metadata1259">
    <rdf:RDF>
      <cc:Work
         rdf:about="">
        <dc:format>image/svg+xml</dc:format>
        <dc:type
           rdf:resource="http://purl.org/dc/dcmitype/StillImage" />
        <dc:title></dc:title>
      </cc:Work>
    </rdf:RDF>
  </metadata>
  <g
     inkscape:label="Layer 1"
     inkscape:groupmode="layer"
     id="layer1">
    <path
       class="cls-17"
       d="m 17.642137,2.5922173 a 0.3426379,0.3426379 0 0 0 0.0291,0.132293 c -0.404815,0.6614629 -2.565154,1.6152925 -3.397274,1.9394094 l -0.03042,0.011905 -0.02249,0.02249 c -0.493451,0.4934517 -0.591348,2.5810293 -0.600608,2.81651 l 0.309564,0.011905 C 13.963079,6.6999032 14.1258,5.287018 14.420813,4.9377653 14.850764,4.7684306 17.32199,3.7669757 17.912015,2.9203029 a 0.33866912,0.33866912 0 0 0 0.07541,0.00926 0.34396083,0.34396083 0 1 0 -0.345283,-0.337346 z"
       id="path224"
       inkscape:connector-curvature="0"
       style="fill:#1d1d1b;stroke-width:0.13229261" />
    <path
       class="cls-17"
       d="m 13.661452,3.2166388 a 0.3446225,0.3446225 0 0 0 -0.689245,0 v 0 c -0.222251,0.1508136 -0.82286,0.6839523 -2.65379,2.5638306 A 4.3881464,4.3881464 0 0 0 8.3340278,7.256855 L 8.5986133,7.4288358 A 4.1407591,4.1407591 0 0 1 10.461293,6.0622529 l 0.03175,-0.011905 0.02382,-0.025135 c 1.074213,-1.1033221 2.29792,-2.3137995 2.594255,-2.5334051 a 0.3426379,0.3426379 0 0 0 0.550338,-0.2751687 z"
       id="path226"
       inkscape:connector-curvature="0"
       style="fill:#1d1d1b;stroke-width:0.13229261" />
    <path
       class="cls-17"
       d="m 7.4172397,2.9203032 -0.0463,0.070115 0.033075,0.07673 c 0.062177,0.146845 0.1785953,1.3017592 0,1.8124089 -0.1084798,0.3029503 -0.1322925,1.080831 -0.1322925,1.7634609 0,0.5662121 0.01852,1.0662782 0.02249,1.1760815 L 7.6037771,7.805869 C 7.5786419,7.1642499 7.5468911,5.4047581 7.6977047,4.9827445 7.8868831,4.4535741 7.804862,3.379358 7.7201949,3.0274595 7.8432273,2.8157914 8.2334906,2.0749527 8.5509929,0.6832346 A 0.34396083,0.34396083 0 1 0 8.2533343,0.58930692 C 7.8868836,2.184756 7.4225367,2.9136881 7.4172447,2.9203027 Z"
       id="path228"
       inkscape:connector-curvature="0"
       style="fill:#1d1d1b;stroke-width:0.13229261" />
    <path
       class="cls-17"
       d="M 7.0746022,8.0439962 C 7.0216848,7.8958287 5.730509,4.4218244 2.5449031,3.3370247 2.3319115,3.1094816 1.3542695,2.0762762 0.69280617,1.6952734 A 0.34528375,0.34528375 0 1 0 0.56845127,1.97838 C 1.1082052,2.3024967 1.9985341,3.2007637 2.3464641,3.5764746 l 0.02646,0.029105 0.03704,0.011905 c 3.0678656,1.0226216 4.365656,4.4979489 4.3735935,4.5310221 z"
       id="path230"
       inkscape:connector-curvature="0"
       style="fill:#1d1d1b;stroke-width:0.13229261" />
    <path
       class="cls-17"
       d="m 17.642137,13.706121 a 0.3426379,0.3426379 0 0 1 0.0291,-0.132293 c -0.404815,-0.661463 -2.565154,-1.615293 -3.397274,-1.93941 l -0.03042,-0.01191 -0.02249,-0.02249 C 13.727601,11.106571 13.629704,9.0189938 13.620444,8.7835131 l 0.309564,-0.011905 c 0.03308,0.8268285 0.195794,2.2397139 0.490806,2.5876439 0.429951,0.169334 2.901177,1.170789 3.491202,2.017462 a 0.34396083,0.34396083 0 1 1 -0.269876,0.329409 z"
       id="path232"
       inkscape:connector-curvature="0"
       style="fill:#1d1d1b;stroke-width:0.13229261" />
    <path
       class="cls-17"
       d="m 13.661452,13.0817 a 0.3446225,0.3446225 0 0 1 -0.689245,0 v 0 c -0.222251,-0.150814 -0.82286,-0.683953 -2.65379,-2.563831 A 4.3894693,4.3894693 0 0 1 8.3340278,9.041483 L 8.5986133,8.8695022 a 4.1407591,4.1407591 0 0 0 1.8719407,1.3705518 l 0.03175,0.0119 0.02381,0.02514 c 1.074216,1.103321 2.297923,2.313798 2.594258,2.533404 a 0.3426379,0.3426379 0 0 1 0.541077,0.2712 z"
       id="path234"
       inkscape:connector-curvature="0"
       style="fill:#1d1d1b;stroke-width:0.13229261" />
    <path
       class="cls-17"
       d="m 7.4172397,13.378035 -0.0463,-0.07012 0.033075,-0.07673 c 0.062177,-0.146845 0.1785953,-1.301759 0,-1.812409 -0.1084798,-0.30295 -0.1322925,-1.080831 -0.1322925,-1.7634606 0,-0.5662121 0.01852,-1.0662782 0.02249,-1.1760815 L 7.603777,8.4911389 C 7.578642,9.132758 7.546891,10.89225 7.697705,11.314263 c 0.1891784,0.529171 0.1071573,1.603387 0.02249,1.955286 0.1230324,0.211668 0.5132957,0.952506 0.830798,2.344225 a 0.34396083,0.34396083 0 1 1 -0.2976586,0.09393 C 7.8868836,14.118872 7.4225367,13.385971 7.4172447,13.378033 Z"
       id="path236"
       inkscape:connector-curvature="0"
       style="fill:#1d1d1b;stroke-width:0.13229261" />
    <path
       class="cls-17"
       d="M 7.0746022,8.2556648 C 7.0216848,8.4038323 5.730509,11.877836 2.5449031,12.962636 2.3319115,13.190179 1.3542695,14.223384 0.69280617,14.604387 A 0.34660667,0.34660667 0 1 1 0.56845127,14.321281 C 1.1082052,13.997164 1.9985341,13.098897 2.3464641,12.723187 l 0.02646,-0.02911 0.03704,-0.01191 C 5.4778302,11.659554 6.7756206,8.1842273 6.7835581,8.151154 Z"
       id="path238"
       inkscape:connector-curvature="0"
       style="fill:#1d1d1b;stroke-width:0.13229261" />
    <path
       class="cls-37"
       d="m 5.7582902,8.9965031 a 0.35189838,0.35189838 0 0 0 0.1415535,0.025135 1.1311019,1.1311019 0 0 0 0.820214,-0.4312741 c 0.4061384,0.555629 1.5517927,0.9577989 2.636592,0.9577989 0.9591213,0 1.6113243,-0.3148568 1.9076603,-0.7725891 -0.101866,0.4233366 -0.205054,0.894298 0.132292,0.9961637 1.521365,0.4722855 2.419633,-0.1547821 2.910438,-0.7593595 0.353221,0.096574 0.70512,-0.2883975 0.70512,-0.2883975 A 2.7781451,2.7781451 0 0 1 14.430072,8.8562731 5.1236931,5.1236931 0 0 0 14.82695,8.1670286 v 0 0 0 0 A 5.0535781,5.0535781 0 0 0 14.410228,7.455294 2.7556554,2.7556554 0 0 1 15.009514,7.5875869 c 0,0 -0.361159,-0.3968778 -0.718349,-0.284429 C 13.791099,6.703872 12.895477,6.0926801 11.388664,6.560996 11.057933,6.6641842 11.161121,7.1338231 11.256372,7.5571597 10.958713,7.0994269 10.307834,6.7845706 9.3487122,6.7845706 c -1.0781848,0 -2.2145785,0.3968779 -2.6273315,0.9472154 A 1.1311019,1.1311019 0 0 0 5.8932287,7.2899283 0.35454423,0.35454423 0 0 0 5.7516756,7.3137435 C 5.3005579,6.624499 4.3176241,6.1469225 3.1772617,6.1469225 c -1.5676679,0 -2.83767709,0.902236 -2.83767709,2.0148166 0,1.112581 1.27133219,2.0148169 2.83767709,2.0148169 1.146977,-0.01323 2.1312337,-0.4908059 2.5810285,-1.1800504 z"
       id="path240"
       inkscape:connector-curvature="0"
       style="fill:#581212;stroke-width:0.13229261" />
    <path
       style="fill:#000000;fill-opacity:1;stroke:none;stroke-width:0.50000364;stroke-miterlimit:4;stroke-dasharray:none;stroke-opacity:1"
       d="m 14.089871,8.9417467 c 0.02398,0.203674 -0.20329,0.3321959 -0.382207,0.3325084 -0.151099,0.01185 -0.347892,-0.086295 -0.333238,-0.2600973 0.0349,-0.2152601 0.295487,-0.3113823 0.489169,-0.269905 0.101812,0.02015 0.207259,0.088496 0.226276,0.1974939 z"
       id="path1979"
       inkscape:connector-curvature="0" />
    <path
       style="fill:#000000;fill-opacity:1;stroke:none;stroke-width:0.50000364;stroke-miterlimit:4;stroke-dasharray:none;stroke-opacity:1"
       d="m 14.089873,7.3716439 c 0.02398,-0.203674 -0.20329,-0.3321959 -0.382207,-0.3325089 -0.1511,-0.01185 -0.347893,0.086295 -0.333239,0.2600978 0.0349,0.2152596 0.295487,0.3113823 0.489169,0.2699045 0.101813,-0.02015 0.20726,-0.088496 0.226277,-0.1974934 z"
       id="ellipse1981"
       inkscape:connector-curvature="0" />
  </g>
</svg>
