<?xml version="1.0" encoding="UTF-8" standalone="no"?>
<!-- Created with Inkscape (http://www.inkscape.org/) -->

<svg
   xmlns:dc="http://purl.org/dc/elements/1.1/"
   xmlns:cc="http://creativecommons.org/ns#"
   xmlns:rdf="http://www.w3.org/1999/02/22-rdf-syntax-ns#"
   xmlns:svg="http://www.w3.org/2000/svg"
   xmlns="http://www.w3.org/2000/svg"
   xmlns:sodipodi="http://sodipodi.sourceforge.net/DTD/sodipodi-0.dtd"
   xmlns:inkscape="http://www.inkscape.org/namespaces/inkscape"
   width="20"
   height="14.551813"
   viewBox="0 0 20 14.551813"
   version="1.1"
   id="svg2035"
   inkscape:version="0.92.3 (2405546, 2018-03-11)"
   sodipodi:docname="Bug1.svg">
  <defs
     id="defs2029" />
  <sodipodi:namedview
     id="base"
     pagecolor="#ffffff"
     bordercolor="#666666"
     borderopacity="1.0"
     inkscape:pageopacity="0.0"
     inkscape:pageshadow="2"
     inkscape:zoom="7.9195959"
     inkscape:cx="37.238005"
     inkscape:cy="25.020552"
     inkscape:document-units="mm"
     inkscape:current-layer="layer1"
     showgrid="false"
     fit-margin-top="0"
     fit-margin-left="0"
     fit-margin-right="0"
     fit-margin-bottom="0"
     inkscape:window-width="2560"
     inkscape:window-height="1360"
     inkscape:window-x="-11"
     inkscape:window-y="-11"
     inkscape:window-maximized="1" />
  <metadata
     id="metadata2032">
    <rdf:RDF>
      <cc:Work
         rdf:about="">
        <dc:format>image/svg+xml</dc:format>
        <dc:type
           rdf:resource="http://purl.org/dc/dcmitype/StillImage" />
        <dc:title></dc:title>
      </cc:Work>
    </rdf:RDF>
  </metadata>
  <g
     inkscape:label="Layer 1"
     inkscape:groupmode="layer"
     id="layer1">
    <path
       style="fill:#150c07;stroke-width:0.0963899"
       inkscape:connector-curvature="0"
       class="cls-53"
       d="m 14.915433,3.732614 c 0,0 -1.657907,-2.109011 -1.451632,-2.93314504 A 0.56002531,0.56002531 0 0 0 12.867148,1.161895 c 0,0 -0.265073,-0.56677304 -0.242903,-0.77979404 0,0 -0.198563,0.19278 -0.220733,0.352787 0,0 -2.045394,-1.095953 -2.9582061,-0.611112 0,0 0.7653361,0.103137 0.7065381,0.397126 0,0 -0.1542241,0.169646 -0.1927801,0.213022 -0.03856,0.04337 1.9740651,-0.246758 2.3683001,0.44821304 0.394235,0.694971 1.589469,2.607347 2.588069,2.550477 z"
       id="path340" />
    <path
       style="fill:#150c07;stroke-width:0.0963899"
       inkscape:connector-curvature="0"
       class="cls-53"
       d="m 8.7137069,2.092058 c 0,0 1.030408,-1.48633304 0,-1.54223904 -1.030409,-0.05591 -5.0479396,0.293989 -5.3978351,0 0,0 0.4115849,0.50990304 -0.1927796,0.45399704 -0.6043649,-0.05591 -0.7209968,-0.07133 -0.7209968,-0.07133 0,0 0.3238701,0.220733 0.1320545,0.48195 -0.191816,0.261216 -2.73747344,1.972137 -2.51674044,3.207856 0,0 0.3383284,-0.765336 0.6747292,-0.69208 a 1.1566788,1.1566788 0 0 1 0.48194964,0.19278 c 0,0 0.4414655,-0.617859 0.8048558,-1.253069 0.3633898,-0.635209 1.3147581,-1.265599 1.5210327,-1.235718 0.2062743,0.02988 2.7220507,0.06844 3.2348449,-0.215914 0,0 0.8463035,0.09639 0.9147402,0.674729 0.06844,0.57834 1.064145,-9.47e-4 1.064145,-9.47e-4 z"
       id="path342" />
    <path
       style="fill:#150c07;stroke-width:0.0963899"
       inkscape:connector-curvature="0"
       class="cls-53"
       d="m 15.328946,3.957202 c 0,0 1.414039,-1.663689 1.239573,-2.313358 a 0.48869681,0.48869681 0 0 1 0.507976,0.28917 c 0,0 0.225552,-0.447249 0.207238,-0.615931 0,0 0.169646,0.151332 0.192779,0.278566 0,0 1.744658,-0.86750904 2.523488,-0.481949 0,0 -0.652559,0.08097 -0.602437,0.314231 0,0 0.132054,0.133982 0.162899,0.168682 0.03085,0.0347 -1.682004,-0.192779 -2.014549,0.354715 -0.332545,0.547495 -1.362953,2.053105 -2.216967,2.005874 z"
       id="path344" />
    <path
       style="fill:#150c07;stroke-width:0.0963899"
       inkscape:connector-curvature="0"
       class="cls-53"
       d="m 14.915433,10.817272 c 0,0 -1.657907,2.109011 -1.451632,2.933144 a 0.56002531,0.56002531 0 0 1 -0.59569,-0.360498 c 0,0 -0.265072,0.566773 -0.242902,0.779794 0,0 -0.198563,-0.19278 -0.220733,-0.352787 0,0 -2.045394,1.095953 -2.9582061,0.611112 0,0 0.7653361,-0.103137 0.7065381,-0.397126 0,0 -0.1542241,-0.169646 -0.1927801,-0.213022 -0.03856,-0.04337 1.9721371,0.242903 2.3615531,-0.449177 0.389415,-0.692079 1.595252,-2.608311 2.593852,-2.55144 z"
       id="path346" />
    <path
       style="fill:#150c07;stroke-width:0.0963899"
       inkscape:connector-curvature="0"
       class="cls-53"
       d="m 15.328946,10.590755 c 0,0 1.414039,1.665618 1.23861,2.313358 a 0.48869681,0.48869681 0 0 0 0.507975,-0.28917 c 0,0 0.225552,0.447249 0.207238,0.615932 0,0 0.169646,-0.151333 0.19278,-0.278567 0,0 1.744657,0.867509 2.523487,0.481949 0,0 -0.652559,-0.08097 -0.602437,-0.313267 0,0 0.132055,-0.133982 0.162899,-0.168682 0.03085,-0.0347 -1.682004,0.19278 -2.014549,-0.354715 -0.332545,-0.547495 -1.361989,-2.051177 -2.216003,-2.006838 z"
       id="path348" />
    <path
       style="fill:#150c07;stroke-width:0.0963899"
       inkscape:connector-curvature="0"
       class="cls-53"
       d="m 8.7137069,12.457828 c 0,0 1.030408,1.486332 0,1.542238 -1.030409,0.05591 -5.0479396,-0.293989 -5.3978351,0 0,0 0.4115849,-0.509903 -0.1927796,-0.453996 -0.6043649,0.05591 -0.7209968,0.07133 -0.7209968,0.07133 0,0 0.3238701,-0.220732 0.1320545,-0.481949 -0.191816,-0.261217 -2.73747344,-1.972138 -2.51674044,-3.207856 0,0 0.3383284,0.765336 0.6747292,0.692079 a 1.1566788,1.1566788 0 0 0 0.48194964,-0.19278 c 0,0 0.4414655,0.61786 0.8048558,1.253069 0.3633898,0.63521 1.3147581,1.2656 1.5210327,1.235719 0.2062743,-0.02988 2.7220507,-0.06844 3.2348449,0.215913 0,0 0.8463035,-0.09639 0.9147402,-0.674729 0.06844,-0.57834 1.064145,9.47e-4 1.064145,9.47e-4 z"
       id="path350" />
    <path
       style="fill:#3b1f10;stroke-width:0.0963899"
       inkscape:connector-curvature="0"
       class="cls-54"
       d="m 18.715123,8.932849 c 0,0 0.805819,-0.282423 0.82317,-1.648267 V 7.265302 C 19.520943,5.899457 18.715123,5.617034 18.715123,5.617034 18.646683,5.116771 17.792671,5.08689 17.792671,5.08689 v 4.376101 c 0,0 0.854015,-0.02892 0.922452,-0.530144 z"
       id="path352" />
    <path
       style="fill:#3b1f10;stroke-width:0.0963899"
       inkscape:connector-curvature="0"
       class="cls-54"
       d="m 8.3165799,12.710369 c -4.2045273,0 -6.3183581,-2.487823 -6.3183581,-5.434462 0,-2.94664 2.1138308,-5.439283 6.3183581,-5.439283 4.2045281,0 8.9083551,2.487824 8.9083551,5.435427 0,2.947603 -4.704791,5.438318 -8.9083551,5.438318 z"
       id="path354" />
    <path
       style="fill:#150c07;stroke-width:0.0963899"
       inkscape:connector-curvature="0"
       class="cls-53"
       d="m 2.0203914,6.779499 c -0.013494,0.164826 -0.021206,0.331581 -0.021206,0.500263 0,0.168682 0.00771,0.32869 0.021206,0.490625 L 13.908159,7.279762 Z"
       id="path356" />
    <path
       style="fill:#542c17;stroke-width:0.0963899"
       inkscape:connector-curvature="0"
       class="cls-55"
       d="m 14.833502,11.603813 c 0.951368,-0.797144 4.003072,-2.296971 4.003072,-4.32887 0,-2.031899 -3.054596,-3.530762 -4.003072,-4.328871 0,0 -0.922452,3.199181 -0.922452,4.328871 0,1.129689 0.922452,4.32887 0.922452,4.32887 z"
       id="path358" />
    <path
       style="opacity:0.27000002;fill:#1d1d1b;stroke-width:0.0963899"
       inkscape:connector-curvature="0"
       class="cls-56"
       d="m 0.69406656,3.931177 a 1.1566788,1.1566788 0 0 1 0.48194964,0.19278 c 0,0 0.4414655,-0.617859 0.8048554,-1.253069 C 2.3442615,2.235679 3.2956301,1.605289 3.5019044,1.63517 3.708179,1.66505 6.2239555,1.70361 6.7367496,1.419256 c 0,0 0.6082204,0.07133 0.8347363,0.447249 C 3.8643306,2.145072 2.0011137,4.506625 2.0011137,7.273979 H 19.544076 v -0.0096 C 19.526726,5.898534 18.720906,5.616112 18.720906,5.616112 18.652466,5.115848 17.798455,5.085967 17.798455,5.085967 V 5.196816 C 17.25096,4.639682 16.571411,4.154841 15.975722,3.750967 16.645632,3.32396 17.294336,2.359097 17.544949,1.945584 17.877494,1.399054 19.591307,1.62557 19.559498,1.59087 19.527688,1.55617 19.396599,1.422188 19.396599,1.422188 c -0.05012,-0.2323 0.602437,-0.314231 0.602437,-0.314231 -0.777866,-0.38556004 -2.523487,0.481949 -2.523487,0.481949 -0.01831,-0.127235 -0.19278,-0.278567 -0.19278,-0.278567 0.01831,0.168683 -0.207238,0.615932 -0.207238,0.615932 a 0.48869681,0.48869681 0 0 0 -0.507975,-0.28917 c 0.119523,0.444357 -0.500264,1.360062 -0.906065,1.896953 -0.337365,-0.22748 -0.63039,-0.427007 -0.830881,-0.594725 0,0 -0.05494,0.19278 -0.136874,0.491588 C 14.249379,2.822733 13.304758,1.427971 13.463801,0.79372596 A 0.56002531,0.56002531 0 0 0 12.867148,1.161935 c 0,0 -0.265073,-0.56677204 -0.242903,-0.77979404 0,0 -0.198563,0.19278 -0.220733,0.352787 0,0 -2.045394,-1.095953 -2.9582061,-0.611112 0,0 0.7653361,0.103137 0.7065381,0.397126 0,0 -0.1542241,0.169646 -0.1927801,0.213022 -0.03856,0.04337 1.9740651,-0.246758 2.3683001,0.44821304 0.24483,0.433754 0.808711,1.349459 1.445849,1.955751 A 12.618402,12.618402 0 0 0 8.8573269,1.854015 c 0.241939,-0.422188 0.621716,-1.26270804 -0.147476,-1.30704704 -1.030408,-0.0588 -5.0479391,0.293989 -5.3978346,0 0,0 0.411585,0.50990204 -0.1927799,0.45399604 C 2.5148718,0.945054 2.39824,0.929634 2.39824,0.929634 c 0,0 0.32387,0.220733 0.1320541,0.48195 -0.191816,0.261216 -2.73747304,1.972137 -2.51674014,3.207856 0.00288,0.0039 0.3412203,-0.758589 0.6805126,-0.688224 z"
       id="path360" />
  </g>
</svg>
