<?xml version="1.0" encoding="UTF-8" standalone="no"?>
<svg
   xmlns:dc="http://purl.org/dc/elements/1.1/"
   xmlns:cc="http://creativecommons.org/ns#"
   xmlns:rdf="http://www.w3.org/1999/02/22-rdf-syntax-ns#"
   xmlns:svg="http://www.w3.org/2000/svg"
   xmlns="http://www.w3.org/2000/svg"
   xmlns:sodipodi="http://sodipodi.sourceforge.net/DTD/sodipodi-0.dtd"
   xmlns:inkscape="http://www.inkscape.org/namespaces/inkscape"
   viewBox="0 0 546.16735 546.16737"
   height="546.16736"
   width="546.16736"
   xml:space="preserve"
   id="svg2"
   version="1.1"
   sodipodi:docname="Turtle.svg"
   inkscape:version="0.92.3 (2405546, 2018-03-11)"
   inkscape:export-filename="C:\Users\egger\Workspace\PlayAndLearn\src\PlayAndLearn\Models\Turtle\default.png"
   inkscape:export-xdpi="8.79"
   inkscape:export-ydpi="8.79"><sodipodi:namedview
     pagecolor="#ffffff"
     bordercolor="#666666"
     borderopacity="1"
     objecttolerance="10"
     gridtolerance="10"
     guidetolerance="10"
     inkscape:pageopacity="0"
     inkscape:pageshadow="2"
     inkscape:window-width="1440"
     inkscape:window-height="837"
     id="namedview97"
     showgrid="false"
     fit-margin-top="0"
     fit-margin-left="0"
     fit-margin-right="0"
     fit-margin-bottom="0"
     inkscape:zoom="0.49875312"
     inkscape:cx="37.334942"
     inkscape:cy="137.12743"
     inkscape:window-x="-8"
     inkscape:window-y="-8"
     inkscape:window-maximized="1"
     inkscape:current-layer="svg2" /><metadata
     id="metadata8"><rdf:RDF><cc:Work
         rdf:about=""><dc:format>image/svg+xml</dc:format><dc:type
           rdf:resource="http://purl.org/dc/dcmitype/StillImage" /><dc:title /></cc:Work></rdf:RDF></metadata><defs
     id="defs6" /><g
     id="g4821"
     transform="rotate(90,267.09322,279.07415)"><path
       inkscape:connector-curvature="0"
       d="m 293.57388,500.45057 v 13.44634 c 0,15.43378 -8.54185,25.38796 -19.46617,29.76919 -4.12856,1.66406 -8.58522,2.50221 -12.99851,2.50127 -4.40387,9.4e-4 -8.86995,-0.84287 -13.00511,-2.50033 -10.91019,-4.37652 -19.4445,-14.32881 -19.43507,-29.76824 l -0.0226,-13.44824 C 184.05435,493.5426 144.07737,472.6443 113.37857,442.39239 L 84.319314,459.17061 C 61.231804,472.5189 39.078615,468.40731 23.204542,455.94998 17.186596,451.23122 12.064308,445.22835 8.181825,438.50047 4.299335,431.80275 1.6566436,424.35927 0.5724085,416.74326 -2.2654444,396.77834 5.23838,375.55854 28.318338,362.231 l 29.03758,-16.78484 c -4.390666,-16.92625 -6.735432,-34.68029 -6.734492,-52.98304 -9.4e-4,-18.30086 2.344767,-36.07093 6.734492,-52.99812 L 28.340966,222.71788 c -23.100705,-13.32 -30.6130077,-34.56149 -27.76761,-54.52641 1.0898849,-7.6311 3.7335167,-15.08306 7.594327,-21.77418 3.844773,-6.65811 8.981196,-12.66947 15.066084,-17.44196 15.867476,-12.43943 38.019717,-16.55196 61.082712,-3.22253 l 29.061151,16.782 c 17.09029,-16.85837 37.07219,-30.79119 59.11223,-41.03481 -0.17159,-1.26903 -0.3215,-2.569153 -0.43369,-3.874943 -0.26776,-2.89631 -0.40352,-5.621031 -0.40163,-8.176041 -0.002,-24.690281 10.01828,-47.068797 26.19877,-63.249288 C 214.0338,10.019227 236.41232,-9.442297e-4 261.10354,3.2703153e-6 285.79476,-9.442297e-4 308.17234,10.020175 324.35189,26.199718 c 16.17954,16.179544 26.19971,38.556178 26.20066,63.249295 -9.4e-4,2.687946 -0.15085,5.547484 -0.43463,8.540904 -0.1122,1.18888 -0.24514,2.351353 -0.40259,3.508193 22.03251,10.24738 42.00591,24.18492 59.11319,41.03764 l 29.05831,-16.77728 c 23.08468,-13.35113 45.24164,-9.23577 61.11289,3.21874 6.01229,4.71122 11.13362,10.71314 15.02271,17.44951 3.88154,6.69489 6.52518,14.14119 7.60752,21.7572 2.83786,19.96304 -4.66501,41.19321 -27.74404,54.51228 l -29.03663,16.78389 c 4.38973,16.93473 6.7326,34.6831 6.73355,52.98397 0,18.29993 -2.34288,36.0615 -6.73638,52.99624 l 29.01872,16.74711 c 23.09977,13.32096 30.61301,34.56339 27.76667,54.52549 -1.09177,7.63298 -3.73541,15.08494 -7.59244,21.77417 -3.84667,6.66189 -8.98421,12.6721 -15.06911,17.44083 -15.86351,12.4415 -38.01952,16.55592 -61.08157,3.22743 l -29.06398,-16.79238 c -30.70729,30.24721 -70.67391,51.16154 -115.25086,58.06762"
       style="fill:#597528;fill-opacity:1;fill-rule:evenodd;stroke:none;stroke-width:0.13333333"
       id="path172" /><path
       inkscape:connector-curvature="0"
       d="M 399.37403,154.19264 C 363.9904,118.80901 315.09915,96.916057 261.10166,96.916997 207.10415,96.916057 158.20725,118.80713 122.82835,154.1917 87.446607,189.56778 65.553634,238.46656 65.553641,292.46501 c -7e-6,53.99656 21.892966,102.8878 57.276589,138.27142 35.37514,35.37514 84.27204,57.27377 138.27049,57.27565 53.99184,-0.003 102.89156,-21.89862 138.27425,-57.27376 35.3782,-35.38527 57.27471,-84.28618 57.27377,-138.27426 -9.5e-4,-53.99938 -21.89958,-102.89629 -57.27471,-138.27142"
       style="fill:#e09a14;fill-opacity:1;fill-rule:evenodd;stroke:none;stroke-width:0.13333333"
       id="path174" /><path
       inkscape:connector-curvature="0"
       d="m 261.10354,118.52995 c 48.01538,0.002 91.5147,19.47466 122.98661,50.94657 31.4625,31.49828 50.94563,74.98348 50.94563,122.98566 0,48.00217 -19.4822,91.4883 -50.94469,122.95832 -31.5009,31.49383 -74.98632,50.97486 -122.98849,50.97486 -48.00218,0 -91.48925,-19.48126 -122.95927,-50.94375 -31.50019,-31.4719 -50.973909,-74.97029 -50.972968,-122.98849 9.4e-4,-48.0314 19.472768,-91.51658 50.942798,-122.98661 31.47191,-31.47191 74.95803,-50.94468 122.99038,-50.94656"
       style="fill:#77611e;fill-opacity:1;fill-rule:evenodd;stroke:none;stroke-width:0.13333333"
       id="path178" /><path
       inkscape:connector-curvature="0"
       d="m 310.77543,206.38937 -49.67189,-28.68685 -99.35039,57.37277 -9.4e-4,114.77473 99.35038,57.37276 99.34945,-57.36994 -9.4e-4,-114.77661 -49.67567,-28.68686"
       style="fill:#fbc71b;fill-opacity:1;fill-rule:evenodd;stroke:none;stroke-width:0.13333333"
       id="path180" /><path
       inkscape:connector-curvature="0"
       d="m 394.95508,378.33511 c -6.1754,9.61665 -13.36714,18.5262 -21.4093,26.57402 -27.12344,27.11071 -64.03748,44.47795 -104.97708,46.37583 l -9.4e-4,-31.20415 99.35887,-57.35108 z m -141.31859,72.94796 1e-5,-31.20132 -99.35888,-57.35108 -27.01148,15.59785 c 6.18012,9.61004 13.36526,18.52619 21.40554,26.56646 27.1095,27.12464 64.01862,44.49116 104.96481,46.38809 z M 119.80569,365.44314 146.82,349.84437 V 235.07623 l -27.01431,-15.59124 c -11.31182,21.8562 -17.70218,46.6747 -17.70312,72.98002 9.4e-4,26.30343 6.39036,51.12288 17.70312,72.97813 z m 7.46045,-158.85294 c 6.18012,-9.61572 13.36244,-18.51584 21.40366,-26.55705 27.1265,-27.1265 64.03652,-44.49399 104.96764,-46.39092 l -0.002,31.21075 -99.3485,57.34259 z m 240.65295,15.60631 27.03505,-15.61198 c -6.182,-9.61948 -13.36243,-18.52336 -21.40554,-26.56647 -27.14157,-27.11144 -64.04879,-44.47796 -104.9799,-46.37489 v 31.20887 z m 7.46611,127.64786 27.02184,15.59689 c 11.3024,-21.86374 17.6937,-46.67376 17.69464,-72.97531 0,-26.31569 -6.39036,-51.13418 -17.69558,-72.98756 l -27.02279,15.59595 0.002,114.77003 v 0"
       style="fill:#f1ae0d;fill-opacity:1;fill-rule:evenodd;stroke:none;stroke-width:0.13333333"
       id="path184" /><path
       inkscape:connector-curvature="0"
       d="m 61.731495,360.11721 -25.953647,14.98501 c -16.956421,9.76656 -22.490712,25.14754 -20.450476,39.53481 0.813647,5.73511 2.807688,11.34953 5.726625,16.40488 2.902914,5.06194 6.778792,9.58647 11.363672,13.18706 11.43251,8.968 27.505514,11.83981 44.440255,2.06664 L 102.89453,431.28044 C 84.839738,410.71777 70.714573,386.60072 61.731495,360.11721 Z m 357.579165,71.15568 26.01305,15.01612 c 16.97056,9.78824 33.06054,6.8976 44.49398,-2.06192 4.52926,-3.55439 8.39855,-8.10061 11.33162,-13.18519 2.92743,-5.06382 4.92053,-10.67542 5.72757,-16.38319 2.04589,-14.40235 -3.50065,-29.77485 -20.45141,-39.56215 l -25.95082,-15.00103 c -8.99157,26.48445 -23.11202,50.60621 -41.16399,71.17736 z m 41.15268,-206.4648 25.96401,-14.98406 c 16.95454,-9.76468 22.48788,-25.13907 20.45142,-39.53576 -0.81554,-5.73511 -2.80769,-11.34765 -5.72757,-16.40393 -2.90385,-5.06289 -6.78257,-9.58837 -11.36368,-13.18707 -11.42401,-8.95952 -27.50927,-11.84168 -44.44119,-2.06569 l -26.03661,15.01518 c 18.04914,20.55323 32.16676,44.67029 41.15362,71.16133 z M 261.10166,81.982898 c 26.1554,8e-6 51.20018,4.770617 74.29995,13.492549 0.1433,-1.86111 0.2159,-3.868351 0.21684,-6.026434 -9.4e-4,-20.576815 -8.34669,-39.216142 -21.8232,-52.692657 C 300.31779,23.278901 281.67846,14.933153 261.1026,14.93316 c -20.57681,-9.48e-4 -39.21426,8.346681 -52.69171,21.824136 -13.47746,13.477456 -21.82415,32.113962 -21.8232,52.690769 -0.002,2.189203 0.0717,4.197382 0.21684,6.024552 23.10731,-8.718162 48.14171,-13.489719 74.29713,-13.489719 z M 102.88604,153.65429 76.880551,138.63817 c -16.97057,-9.78824 -33.061485,-6.89853 -44.493047,2.06099 -4.53114,3.55438 -8.398547,8.10061 -11.333514,13.18707 -2.928363,5.06099 -4.921456,10.67637 -5.727558,16.3813 -2.044953,14.40895 3.501593,29.77579 20.452356,39.5631 l 25.944222,14.99443 c 8.981197,-26.49104 23.103533,-50.60904 41.16303,-71.17077 z m 140.68408,348.56592 v 11.67575 c -0.0292,8.35611 4.40575,13.67168 10.07392,15.94385 2.30611,0.92395 4.87526,1.39441 7.46516,1.39536 2.58989,-9.4e-4 5.15905,-0.46952 7.4595,-1.39725 5.65308,-2.26274 10.07297,-7.57829 10.07297,-15.93912 v -11.67953 c -5.78791,0.47801 -11.63426,0.72408 -17.53907,0.72503 -5.9067,9.4e-4 -11.75212,-0.24797 -17.53248,-0.72409 v 0"
       style="fill:#87b027;fill-opacity:1;fill-rule:evenodd;stroke:none;stroke-width:0.13333333"
       id="path188" /><path
       inkscape:connector-curvature="0"
       d="m 296.83789,41.417597 c -4.30204,2.753954 -4.31712,10.385044 -0.0519,17.035623 4.26904,6.648692 11.21283,9.80615 15.50826,7.049381 4.29922,-2.753 4.3143,-10.391641 0.05,-17.037504 -4.27186,-6.643969 -11.21282,-9.809926 -15.50637,-7.0475 z m -71.47058,-0.0094 c 4.30204,2.763373 4.32372,10.393522 0.0537,17.046923 -4.27186,6.643976 -11.21753,9.805217 -15.5092,7.055985 -4.30015,-2.761485 -4.32372,-10.393522 -0.0519,-17.045042 4.27282,-6.654348 11.21566,-9.805216 15.50733,-7.057866 v 0"
       style="fill:#1c1a19;fill-opacity:1;fill-rule:evenodd;stroke:none;stroke-width:0.13333333"
       id="path192" /></g></svg>