<?xml version="1.0" encoding="UTF-8" standalone="no"?>
<!-- Created with Inkscape (http://www.inkscape.org/) -->

<svg
   xmlns:dc="http://purl.org/dc/elements/1.1/"
   xmlns:cc="http://creativecommons.org/ns#"
   xmlns:rdf="http://www.w3.org/1999/02/22-rdf-syntax-ns#"
   xmlns:svg="http://www.w3.org/2000/svg"
   xmlns="http://www.w3.org/2000/svg"
   xmlns:sodipodi="http://sodipodi.sourceforge.net/DTD/sodipodi-0.dtd"
   xmlns:inkscape="http://www.inkscape.org/namespaces/inkscape"
   width="50"
   height="50"
   viewBox="0 0 50 50"
   version="1.1"
   id="svg4577"
   inkscape:version="0.92.3 (2405546, 2018-03-11)"
   sodipodi:docname="Turtle2.0.svg">
  <defs
     id="defs4571" />
  <sodipodi:namedview
     id="base"
     pagecolor="#ffffff"
     bordercolor="#666666"
     borderopacity="1.0"
     inkscape:pageopacity="0.0"
     inkscape:pageshadow="2"
     inkscape:zoom="7.919596"
     inkscape:cx="-1.6467796"
     inkscape:cy="42.761949"
     inkscape:document-units="px"
     inkscape:current-layer="layer1"
     showgrid="false"
     inkscape:window-width="2560"
     inkscape:window-height="1360"
     inkscape:window-x="-11"
     inkscape:window-y="-11"
     inkscape:window-maximized="1"
     units="px"
     width="50mm"
     viewbox-width="50" />
  <metadata
     id="metadata4574">
    <rdf:RDF>
      <cc:Work
         rdf:about="">
        <dc:format>image/svg+xml</dc:format>
        <dc:type
           rdf:resource="http://purl.org/dc/dcmitype/StillImage" />
        <dc:title />
      </cc:Work>
    </rdf:RDF>
  </metadata>
  <g
     inkscape:label="Layer 1"
     inkscape:groupmode="layer"
     id="layer1"
     transform="translate(0,0)">
    <circle
       style="fill:#597528;fill-opacity:1;stroke:none;stroke-width:3.46599555;stroke-miterlimit:4;stroke-dasharray:none;stroke-opacity:1"
       id="path832"
       cx="42.125984"
       cy="25.000109"
       r="7.8740172" />
    <circle
       style="fill:#87b027;fill-opacity:1;stroke:none;stroke-width:3.77989697;stroke-miterlimit:4;stroke-dasharray:none;stroke-opacity:1"
       id="path834"
       cx="42.125992"
       cy="25.000101"
       r="6.692915" />
    <rect
       style="fill:#597528;fill-opacity:1;stroke:none;stroke-width:4.54282808;stroke-miterlimit:4;stroke-dasharray:none;stroke-opacity:1"
       id="rect842"
       width="11.811026"
       height="5.5118122"
       x="-7.1525574e-007"
       y="22.244196"
       ry="2.7559061" />
    <rect
       style="fill:#87b027;fill-opacity:1;stroke:none;stroke-width:3.07151222;stroke-miterlimit:4;stroke-dasharray:none;stroke-opacity:1"
       id="rect842-7"
       width="9.4488201"
       height="3.1496067"
       x="1.1828454"
       y="23.425303"
       ry="1.5748034" />
    <rect
       style="fill:#597528;fill-opacity:1;stroke:none;stroke-width:11.30285931;stroke-miterlimit:4;stroke-dasharray:none;stroke-opacity:1"
       id="rect842-1"
       width="51.18111"
       height="7.8740163"
       x="7.6742535"
       y="-11.553349"
       ry="3.9370081"
       transform="rotate(60)" />
    <rect
       transform="matrix(-0.5,0.8660254,0.8660254,0.5,0,0)"
       ry="3.9370081"
       y="28.679335"
       x="-15.554095"
       height="7.8740163"
       width="51.18111"
       id="rect889"
       style="fill:#597528;fill-opacity:1;stroke:none;stroke-width:11.30285931;stroke-miterlimit:4;stroke-dasharray:none;stroke-opacity:1" />
    <rect
       style="fill:#87b027;fill-opacity:1;stroke:none;stroke-width:9.23583698;stroke-miterlimit:4;stroke-dasharray:none;stroke-opacity:1"
       id="rect842-7-2"
       width="48.818909"
       height="5.5118122"
       x="8.886858"
       y="-10.372242"
       ry="2.7559061"
       transform="rotate(60)" />
    <rect
       transform="matrix(-0.5,0.8660254,0.8660254,0.5,0,0)"
       ry="2.7559061"
       y="29.860437"
       x="-14.341491"
       height="5.5118122"
       width="48.818909"
       id="rect891"
       style="fill:#87b027;fill-opacity:1;stroke:none;stroke-width:9.23583698;stroke-miterlimit:4;stroke-dasharray:none;stroke-opacity:1" />
    <circle
       style="fill:#597528;fill-opacity:1;stroke:none;stroke-width:0.8105855;stroke-miterlimit:4;stroke-dasharray:none;stroke-opacity:1"
       id="path5122"
       cx="23.228352"
       cy="25.000109"
       r="19.685043" />
    <circle
       style="fill:#e09a14;fill-opacity:1;stroke:none;stroke-width:3.72106862;stroke-miterlimit:4;stroke-dasharray:none;stroke-opacity:1"
       id="path816"
       cx="23.228352"
       cy="25.000101"
       r="18.503939" />
    <circle
       style="fill:#77611e;fill-opacity:1;stroke:none;stroke-width:4.94669104;stroke-miterlimit:4;stroke-dasharray:none;stroke-opacity:1"
       id="path818"
       cx="23.228352"
       cy="25.000101"
       r="16.535437" />
    <path
       inkscape:connector-curvature="0"
       style="fill:#fbc71b;fill-opacity:1;fill-rule:evenodd;stroke:none;stroke-width:0.09662287"
       d="m 17.680328,15.40586 -5.546681,9.594241 5.546476,9.594041 11.096247,-1.96e-4 2.773337,-4.797025 2.773344,-4.79682 -5.546681,-9.594044 z"
       id="path180" />
    <path
       inkscape:connector-curvature="0"
       style="fill:#f1ae0d;fill-opacity:1;fill-rule:evenodd;stroke:none;stroke-width:0.09662287"
       d="m 23.228041,9.6457665 c -2.542945,9.5e-5 -4.942139,0.6169985 -7.055043,1.7094545 l 1.50795,2.608696 H 28.77637 l 1.507332,-2.608696 C 28.170703,10.26286 25.771164,9.6458615 23.228041,9.6457665 Z m -8.301045,2.4300325 c -0.929074,0.596805 -1.791011,1.290545 -2.56832,2.066985 -2.6223357,2.617921 -4.3010657,6.182231 -4.4844537,10.136344 H 10.89053 l 5.544415,-9.59503 z m 16.603325,0 -1.508772,2.609287 5.543794,9.594042 3.01734,2.05e-4 C 38.399272,20.32667 36.720126,16.762161 34.097606,14.142591 33.320208,13.366064 32.459942,12.67261 31.530321,12.075805 Z M 7.8740163,25.721071 c 0.18348,3.953476 1.862433,7.518259 4.4834227,10.137532 0.778042,0.776619 1.639435,1.471028 2.569142,2.067375 l 1.50857,-2.61008 -5.544621,-9.594827 z m 27.6913267,0 -5.543794,9.594238 1.509189,2.610669 c 0.929981,-0.596987 1.79094,-1.290471 2.568523,-2.067182 2.621058,-2.621019 4.300032,-6.18507 4.483422,-10.137725 z m -6.788973,10.315018 -11.095422,1.99e-4 -1.507744,2.609485 c 2.113729,1.091456 4.512074,1.70857 7.054837,1.708662 2.544128,0 4.943554,-0.617132 7.056277,-1.708859 z"
       id="path184" />
    <ellipse
       style="fill:#000000;fill-opacity:1;stroke:none;stroke-width:2.97600651;stroke-miterlimit:4;stroke-dasharray:none;stroke-opacity:1"
       id="path836"
       cx="21.048969"
       cy="45.762909"
       rx="0.89482039"
       ry="1.2415817"
       transform="rotate(-40)" />
    <ellipse
       transform="matrix(0.76604444,0.64278761,0.64278761,-0.76604444,0,0)"
       ry="1.2415817"
       rx="0.89482039"
       cy="7.4624591"
       cx="53.186859"
       id="use838"
       style="fill:#000000;fill-opacity:1;stroke:none;stroke-width:2.97600651;stroke-miterlimit:4;stroke-dasharray:none;stroke-opacity:1" />
  </g>
</svg>
